<?xml version="1.0" encoding="UTF-8" standalone="no"?>
<svg
   xmlns:dc="http://purl.org/dc/elements/1.1/"
   xmlns:cc="http://creativecommons.org/ns#"
   xmlns:rdf="http://www.w3.org/1999/02/22-rdf-syntax-ns#"
   xmlns:svg="http://www.w3.org/2000/svg"
   xmlns="http://www.w3.org/2000/svg"
   xmlns:sodipodi="http://sodipodi.sourceforge.net/DTD/sodipodi-0.dtd"
   xmlns:inkscape="http://www.inkscape.org/namespaces/inkscape"
   width="145.24323mm"
   height="105.05681mm"
   viewBox="0 0 145.24322 105.05681"
   version="1.1"
   id="svg293"
   inkscape:version="1.0.1 (3bc2e813f5, 2020-09-07)"
   sodipodi:docname="logo.svg">
  <defs
     id="defs287" />
  <sodipodi:namedview
     id="base"
     pagecolor="#ffffff"
     bordercolor="#666666"
     borderopacity="1.0"
     inkscape:pageopacity="0.0"
     inkscape:pageshadow="2"
     inkscape:zoom="0.35"
     inkscape:cx="180.84041"
     inkscape:cy="520.90559"
     inkscape:document-units="mm"
     inkscape:current-layer="layer1"
     inkscape:document-rotation="0"
     showgrid="false"
     showguides="true"
     inkscape:guide-bbox="true"
     inkscape:snap-object-midpoints="true"
     inkscape:snap-center="true"
     inkscape:window-width="1920"
     inkscape:window-height="1017"
     inkscape:window-x="1912"
     inkscape:window-y="-8"
     inkscape:window-maximized="1">
    <sodipodi:guide
       position="72.646964,75.423221"
       orientation="1,0"
       id="guide327" />
  </sodipodi:namedview>
  <metadata
     id="metadata290">
    <rdf:RDF>
      <cc:Work
         rdf:about="">
        <dc:format>image/svg+xml</dc:format>
        <dc:type
           rdf:resource="http://purl.org/dc/dcmitype/StillImage" />
        <dc:title />
      </cc:Work>
    </rdf:RDF>
  </metadata>
  <g
     inkscape:label="Слой 1"
     inkscape:groupmode="layer"
     id="layer1"
     transform="translate(-34.366746,-43.912049)">
    <path
       id="path26"
       style="fill:#ffffff;fill-rule:evenodd;stroke:none;stroke-width:0.170089"
       d="m 84.041897,43.912049 a 6.7235291,6.7235291 0 0 0 -6.723621,6.72362 6.7235291,6.7235291 0 0 0 6.723621,6.723621 6.7235291,6.7235291 0 0 0 4.104659,-1.398881 L 98.31131,66.097258 a 11.454902,11.454902 0 0 0 -2.752286,7.448124 11.454902,11.454902 0 0 0 1.986958,6.448184 l -8.777759,7.013008 a 6.7235291,6.7235291 0 0 0 -4.664313,-1.881539 6.7235291,6.7235291 0 0 0 -6.723621,6.723621 6.7235291,6.7235291 0 0 0 6.723621,6.72362 6.7235291,6.7235291 0 0 0 6.723621,-6.72362 6.7235291,6.7235291 0 0 0 -0.971003,-3.47989 l 8.777761,-7.013009 a 11.454902,11.454902 0 0 0 8.379331,3.644739 11.454902,11.454902 0 0 0 4.25917,-0.82114 l 3.34657,6.803202 a 6.7235291,6.7235291 0 0 0 -2.99878,5.597591 6.7235291,6.7235291 0 0 0 6.72362,6.723101 6.7235291,6.7235291 0 0 0 6.72362,-6.723101 6.7235291,6.7235291 0 0 0 -6.72362,-6.723621 6.7235291,6.7235291 0 0 0 -2.1606,0.356569 l -3.34656,-6.803202 a 11.454902,11.454902 0 0 0 5.20795,-6.778914 l 5.18573,0.944129 a 6.7235291,6.7235291 0 0 0 -0.0305,0.639752 6.7235291,6.7235291 0 0 0 6.7231,6.723621 6.7235291,6.7235291 0 0 0 6.72363,-6.723621 6.7235291,6.7235291 0 0 0 -6.72363,-6.723621 6.7235291,6.7235291 0 0 0 -6.30245,4.383196 l -5.23534,-0.952913 a 11.454902,11.454902 0 0 0 0.0832,-1.376142 11.454902,11.454902 0 0 0 -6.4332,-10.29498 l 2.41897,-6.09627 a 6.7235291,6.7235291 0 0 0 1.64848,0.205158 6.7235291,6.7235291 0 0 0 6.72362,-6.723621 6.7235291,6.7235291 0 0 0 -6.72362,-6.72362 6.7235291,6.7235291 0 0 0 -6.72362,6.72362 6.7235291,6.7235291 0 0 0 3.45509,5.87561 l -2.41898,6.096267 a 11.454902,11.454902 0 0 0 -3.40186,-0.516763 11.454902,11.454902 0 0 0 -7.471894,2.772439 L 89.37749,54.726374 a 6.7235291,6.7235291 0 0 0 1.387512,-4.090705 6.7235291,6.7235291 0 0 0 -6.723105,-6.72362 z"
       inkscape:export-xdpi="42.812347"
       inkscape:export-ydpi="42.812347" />
    <text
       xml:space="preserve"
       style="font-style:normal;font-weight:normal;font-size:34.6123px;line-height:1.25;font-family:sans-serif;fill:#ffffff;fill-opacity:1;stroke:none;stroke-width:0.865307;"
       x="32.59219"
       y="141.76923"
       id="text112"><tspan
         sodipodi:role="line"
         id="tspan110"
         x="32.59219"
         y="141.76923"
         style="font-style:normal;font-variant:normal;font-weight:normal;font-stretch:normal;font-family:'Century Gothic';-inkscape-font-specification:'Century Gothic';fill:#ffffff;stroke:none;stroke-width:0.865307;">collagen</tspan></text>
  </g>
</svg>
